<svg width="1200" height="900" viewBox="0 0 1200 900" fill="none" xmlns="http://www.w3.org/2000/svg">
  <rect width="1200" height="900" rx="48" fill="#F4F1EA"/>
  <rect x="92" y="106" width="1016" height="688" rx="40" fill="#FFFFFF"/>
  <rect x="138" y="154" width="924" height="592" rx="30" fill="#161616"/>
  <rect x="190" y="214" width="316" height="210" rx="26" fill="#F5F1E9"/>
  <rect x="226" y="246" width="244" height="62" rx="15" fill="#171717"/>
  <rect x="226" y="334" width="210" height="16" rx="8" fill="#CFC8BC"/>
  <rect x="226" y="362" width="164" height="16" rx="8" fill="#D8D0C5"/>
  <rect x="564" y="194" width="398" height="398" rx="32" fill="#F5F1E9"/>
  <circle cx="764" cy="392" r="106" fill="#111111"/>
  <circle cx="764" cy="392" r="32" fill="#F5F1E9"/>
  <path d="M764 262V522" stroke="#F5F1E9" stroke-width="12" stroke-linecap="round"/>
  <path d="M634 392H894" stroke="#F5F1E9" stroke-width="12" stroke-linecap="round"/>
  <path d="M673 301L855 483" stroke="#F5F1E9" stroke-width="12" stroke-linecap="round"/>
  <path d="M855 301L673 483" stroke="#F5F1E9" stroke-width="12" stroke-linecap="round"/>
  <rect x="208" y="508" width="300" height="156" rx="28" fill="#FFFFFF"/>
  <rect x="242" y="546" width="224" height="18" rx="9" fill="#181818"/>
  <rect x="242" y="582" width="196" height="14" rx="7" fill="#CFC8BC"/>
  <rect x="242" y="610" width="152" height="14" rx="7" fill="#DDD5CA"/>
  <rect x="566" y="632" width="316" height="74" rx="22" fill="#1FBF62"/>
  <rect x="614" y="660" width="220" height="18" rx="9" fill="#F8FFFB"/>
  <circle cx="968" cy="246" r="36" fill="#1FBF62"/>
  <path d="M950 246H986" stroke="#F8FFFB" stroke-width="10" stroke-linecap="round"/>
  <path d="M968 228V264" stroke="#F8FFFB" stroke-width="10" stroke-linecap="round"/>
</svg>
